<svg width="115" height="60" viewBox="0 0 115 60" fill="none" xmlns="http://www.w3.org/2000/svg">
<path d="M15.4665 45.891C14.4312 45.891 13.5734 45.6396 12.9375 45.1367C11.7396 44.1902 11.3846 42.4007 11.8875 39.9901L11.9023 39.9457L26.4992 29.682C27.5345 28.9573 28.6141 27.9073 29.4423 26.7981L37.5912 16.0315C39.2032 13.9018 41.5399 12.1419 42.9153 12.0532C43.2703 12.0236 43.5513 12.1123 43.7435 12.3046C45.3851 13.9166 45.0598 17.4365 42.8562 21.962C38.5969 30.6876 28.5993 40.8035 20.5688 44.5156C18.6018 45.4325 16.8714 45.891 15.4665 45.891ZM12.1389 40.0936C11.6656 42.3859 12.0058 44.0571 13.1002 44.9297C14.5199 46.0537 17.1376 45.817 20.4652 44.279C28.4514 40.5817 38.3898 30.525 42.6195 21.8437C44.7788 17.4365 45.1189 14.0202 43.566 12.4969C43.4329 12.3638 43.2259 12.3046 42.9449 12.3194C41.6434 12.4081 39.3955 14.1237 37.813 16.1942L29.6641 26.9607C28.8212 28.0847 27.712 29.1496 26.6619 29.9038L12.1389 40.0936Z" fill="url(#paint0_linear_1_1089)"/>
<path d="M14.7417 46.0538C13.5142 46.0538 12.5085 45.7432 11.8134 45.1073C10.5859 43.9981 10.3197 41.9868 11.074 39.3099L11.0888 39.2655L26.5288 29.5342C27.6232 28.8391 28.7915 27.8039 29.7232 26.6947L38.789 15.8098C40.5785 13.6505 43.0484 11.9794 44.4385 12.0089C44.7935 12.0089 45.0745 12.1272 45.252 12.3639C46.7457 14.2717 46.1097 18.0429 43.5216 22.7164C38.5228 31.7526 27.6823 41.7649 19.356 45.0333C17.596 45.7136 16.0432 46.0538 14.7417 46.0538ZM11.3106 39.443C10.6155 42.0015 10.8521 43.8946 11.9909 44.9298C13.3367 46.1425 15.9101 46.0982 19.2377 44.7967C27.5048 41.5579 38.2862 31.5899 43.2702 22.598C45.7992 18.0134 46.4499 14.3456 45.0153 12.5413C44.897 12.3787 44.69 12.3047 44.409 12.2899C43.1223 12.2751 40.7117 13.902 38.9665 16.002L29.9007 26.8869C28.9542 28.0257 27.7711 29.0757 26.6471 29.7856L11.3106 39.443Z" fill="url(#paint1_linear_1_1089)"/>
<path d="M14.0762 46.172C12.612 46.172 11.4733 45.7727 10.7042 44.9889C9.43234 43.7022 9.31402 41.4542 10.3197 38.4964L10.3345 38.452L26.5583 29.3862C27.7119 28.7355 28.9689 27.7298 29.9894 26.6058L39.9721 15.6766C41.9391 13.5321 44.542 11.9497 45.9174 12.0828C46.2872 12.1123 46.5534 12.275 46.716 12.5412C48.0323 14.73 47.071 18.7527 44.0983 23.574C38.3305 32.8912 26.6618 42.6965 18.0841 45.4473C16.5608 45.9354 15.2149 46.172 14.0762 46.172ZM10.5563 38.6443C9.59502 41.469 9.71333 43.5987 10.8965 44.8114C12.1831 46.1128 14.6973 46.2607 17.9953 45.1959C26.5139 42.4599 38.1235 32.699 43.8617 23.4409C46.79 18.7084 47.7513 14.7892 46.4794 12.6891C46.3611 12.4969 46.1688 12.3933 45.8878 12.3638C44.6012 12.2307 42.0722 13.7687 40.1644 15.8688L30.1817 26.7981C29.1464 27.9368 27.8745 28.9721 26.6914 29.6228L10.5563 38.6443Z" fill="url(#paint2_linear_1_1089)"/>
<path d="M13.5143 46.2312C11.7692 46.2312 10.4381 45.7431 9.59515 44.767C8.30848 43.2733 8.32327 40.7739 9.63951 37.5499L9.6543 37.5055L26.6028 29.2235C27.8155 28.632 29.1465 27.6559 30.2557 26.5467L41.1406 15.6618C43.2999 13.5025 45.9619 12.0828 47.3521 12.3342C47.7218 12.4081 48.0028 12.6004 48.1359 12.911C49.2599 15.4104 47.9437 19.6549 44.5569 24.5797C37.9905 34.1188 25.5084 43.643 16.7384 45.8023C15.57 46.0833 14.4756 46.2312 13.5143 46.2312ZM9.87614 37.7126C8.61905 40.8183 8.58948 43.1994 9.80219 44.6044C11.0297 46.0241 13.4108 46.3495 16.694 45.5361C25.4196 43.3916 37.8278 33.9117 44.3647 24.417C47.6923 19.5661 48.9937 15.4104 47.9141 12.9997C47.8106 12.7779 47.6183 12.63 47.3225 12.5856C46.0359 12.349 43.4182 13.7835 41.3477 15.8393L30.4628 26.7241C29.324 27.8629 27.9782 28.8538 26.7359 29.4602L9.87614 37.7126Z" fill="url(#paint3_linear_1_1089)"/>
<path d="M13.0853 46.2609C10.9704 46.2609 9.41756 45.6545 8.51542 44.4566C7.21396 42.7262 7.39144 39.9754 9.06262 36.4704L9.07741 36.426L26.6914 29.061C27.9485 28.5433 29.3535 27.6116 30.5662 26.5024L42.368 15.7506C44.6604 13.6506 47.4407 12.3491 48.8161 12.7188C49.2007 12.8224 49.4669 13.059 49.5852 13.4139C50.4725 16.2091 48.8161 20.6902 45.0153 25.689C37.6503 35.3908 24.3843 44.5157 15.4516 46.0242C14.5938 46.1869 13.81 46.2609 13.0853 46.2609ZM9.28446 36.6331C7.7168 39.9606 7.52454 42.6819 8.73726 44.2939C9.87603 45.8024 12.1832 46.32 15.3924 45.7728C24.266 44.2791 37.458 35.1985 44.7935 25.5263C48.5351 20.5867 50.1915 16.2091 49.319 13.4879C49.2302 13.2217 49.038 13.0442 48.7274 12.9703C47.4555 12.6301 44.7343 13.9316 42.5307 15.9429L30.7437 26.6947C29.5162 27.8187 28.0816 28.7652 26.7949 29.2976L9.28446 36.6331Z" fill="url(#paint4_linear_1_1089)"/>
<path d="M12.819 46.246C10.2605 46.246 8.42663 45.4918 7.46533 44.0129C6.17866 42.0607 6.57797 38.9402 8.57452 35.2428L8.6041 35.1985L26.7949 28.8983C28.0963 28.4546 29.5753 27.5672 30.8767 26.5024L43.5659 15.9724C45.9913 13.9611 48.8457 12.8075 50.2063 13.2808C50.6204 13.4287 50.8866 13.7097 50.9605 14.1238C51.6113 17.2295 49.5555 21.9177 45.3406 26.9757C37.1622 36.7957 23.1419 45.4179 14.1057 46.2017C13.6472 46.2165 13.2183 46.246 12.819 46.246ZM8.78157 35.4055C6.84418 38.9993 6.45966 42.0015 7.68717 43.865C8.75199 45.477 10.9556 46.1869 14.0761 45.9207C23.0532 45.1369 36.9847 36.5591 45.1336 26.7834C49.3041 21.7846 51.3303 17.1852 50.6943 14.1534C50.6352 13.8428 50.4281 13.621 50.1027 13.5026C48.8309 13.059 46.0801 14.1977 43.7286 16.1499L31.0394 26.6799C29.7232 27.7743 28.1999 28.6616 26.8836 29.1201L8.78157 35.4055Z" fill="url(#paint5_linear_1_1089)"/>
<path d="M12.7305 46.2017C9.62474 46.2017 7.43593 45.2404 6.41547 43.4361C5.15838 41.203 5.77953 37.8014 8.17539 33.8527L8.20497 33.8083L26.869 28.706C28.2 28.3363 29.7529 27.5377 31.1431 26.4876L44.7048 16.2979C47.2782 14.3605 50.1325 13.3844 51.4931 13.9759C51.922 14.1682 52.1882 14.5083 52.2326 14.9816C52.6023 18.3979 50.1473 23.2784 45.5183 28.3511C36.5116 38.2007 21.8111 46.2017 12.7305 46.2017ZM8.38244 34.0302C6.06053 37.8754 5.45417 41.1734 6.6521 43.303C7.6134 45.0186 9.71347 45.9355 12.7305 45.9355C21.7371 45.9355 36.3637 37.9641 45.326 28.1588C49.9107 23.1453 52.3361 18.3536 51.9812 14.9964C51.9368 14.6267 51.7445 14.3605 51.3896 14.2126C50.1325 13.6654 47.3225 14.6562 44.8675 16.5049L31.3058 26.6947C29.886 27.7595 28.3036 28.5729 26.943 28.9574L8.38244 34.0302Z" fill="url(#paint6_linear_1_1089)"/>
<path d="M12.893 46.1721C12.3754 46.1721 11.8578 46.1425 11.3697 46.0982C8.38232 45.8172 6.32661 44.6488 5.42447 42.7262C4.22654 40.1825 5.11389 36.4852 7.90906 32.3146L7.93864 32.2702L26.9872 28.5138C28.3478 28.2476 29.9598 27.5229 31.4388 26.5172L45.8287 16.7563C48.4908 14.952 51.3895 14.1534 52.7205 14.8485C53.179 15.0851 53.4304 15.4992 53.4452 16.0316C53.5191 19.7585 50.65 24.8017 45.5921 29.8596C36.3044 39.162 22.0476 46.1721 12.893 46.1721ZM8.10132 32.5216C5.36531 36.5887 4.50753 40.1825 5.66109 42.6227C6.53366 44.4566 8.51542 45.5658 11.3993 45.8468C20.3616 46.7045 35.6241 39.4578 45.4146 29.6969C50.4282 24.6981 53.2529 19.7289 53.1938 16.0612C53.179 15.6175 52.9867 15.2922 52.617 15.0999C51.3747 14.464 48.5351 15.2774 45.9914 16.9929L31.6014 26.7538C30.1077 27.7743 28.4513 28.5138 27.0611 28.78L8.10132 32.5216Z" fill="url(#paint7_linear_1_1089)"/>
<path d="M13.2924 46.172C12.124 46.172 11.0296 46.0685 10.0239 45.8763C7.1844 45.2995 5.2618 43.9241 4.47797 41.8684C3.36877 38.9845 4.55191 35.0062 7.79076 30.6433L7.82034 30.599L27.1203 28.3362C28.4957 28.1735 30.1669 27.5376 31.7198 26.6059L46.9083 17.4069C49.6739 15.7358 52.5283 15.1294 53.8741 15.9428C54.3769 16.2386 54.6135 16.7266 54.5692 17.333C54.3178 21.3853 51.0198 26.5615 45.5477 31.5455C36.0974 40.138 22.4913 46.172 13.2924 46.172ZM7.96823 30.8356C4.80333 35.0949 3.64977 38.9845 4.72939 41.7648C5.48364 43.7318 7.33229 45.0481 10.0831 45.6101C18.9419 47.3848 34.7812 40.981 45.3703 31.3384C50.7979 26.3988 54.0515 21.2817 54.303 17.3034C54.3325 16.7858 54.1403 16.4013 53.7262 16.1499C52.4987 15.3956 49.6887 16.0168 47.0414 17.614L31.8529 26.8129C30.2704 27.7742 28.5549 28.4102 27.1499 28.5876L7.96823 30.8356Z" fill="url(#paint8_linear_1_1089)"/>
<path d="M14.017 46.2016C12.0501 46.2016 10.2606 45.9649 8.7225 45.4769C6.01606 44.6191 4.24135 43.0071 3.59062 40.8035C2.62932 37.5647 4.12304 33.3053 7.82035 28.7946L7.86472 28.7503L27.2978 28.1291C28.6732 28.0847 30.4035 27.5671 32.0304 26.6945L47.9584 18.1759C50.7536 16.6822 53.6227 16.2681 54.9389 17.1703C55.4713 17.54 55.6932 18.102 55.6044 18.7971C54.9981 23.1451 51.2712 28.4397 45.3851 33.3201C35.9199 41.1289 23.1272 46.2016 14.017 46.2016ZM7.96824 29.0165C4.37445 33.4384 2.89553 37.5942 3.82725 40.7296C4.4484 42.8296 6.16395 44.3825 8.78165 45.2255C17.4482 47.9911 33.7755 42.5486 45.178 33.1131C51.0198 28.277 54.7171 23.0416 55.3086 18.7527C55.3974 18.1464 55.2051 17.6879 54.7614 17.3773C53.5487 16.5343 50.7388 16.9632 48.0619 18.3978L32.1339 26.9164C30.4775 27.8037 28.7028 28.3362 27.283 28.3805L7.96824 29.0165Z" fill="url(#paint9_linear_1_1089)"/>
<path d="M15.0522 46.3348C12.1239 46.3348 9.52102 45.8911 7.43574 44.9298C4.8772 43.7615 3.26517 41.9128 2.76234 39.5466C2.00808 35.9232 3.85674 31.3977 7.98294 26.813L8.02731 26.7686L27.4456 27.937C28.821 28.0257 30.5809 27.6116 32.2817 26.8278L48.9048 19.1078C51.7296 17.7916 54.5839 17.5845 55.8558 18.605C56.4177 19.0634 56.6396 19.7142 56.4621 20.498C55.486 25.1418 51.3007 30.5251 45.0152 35.2429C35.7867 42.1643 23.9553 46.3348 15.0522 46.3348ZM8.13084 27.0348C4.09337 31.5456 2.27429 35.9676 3.01375 39.5022C3.48701 41.7797 5.05467 43.5692 7.53927 44.6932C15.9248 48.5088 32.6662 44.1756 44.8378 35.0358C51.0788 30.3476 55.2198 25.0235 56.1811 20.4388C56.329 19.7437 56.1515 19.1965 55.6635 18.812C54.4656 17.8655 51.7296 18.0873 48.9935 19.3444L32.3704 27.0644C30.6401 27.863 28.821 28.2771 27.416 28.2032L8.13084 27.0348Z" fill="url(#paint10_linear_1_1089)"/>
<path d="M16.4425 46.6009C12.3754 46.6009 8.81124 45.8319 6.19354 44.2346C3.78289 42.7557 2.33354 40.6261 2.02297 38.0823C1.53492 34.0744 3.7681 29.3271 8.32319 24.698L8.36756 24.6537L27.6084 27.7446C28.969 27.9665 30.7585 27.6855 32.5184 27.0051L49.7479 20.2169C52.6022 19.0929 55.3678 19.0929 56.6101 20.2317C57.2165 20.7789 57.4087 21.5331 57.1573 22.4205C55.7819 27.3601 51.1529 32.7877 44.4681 37.2985C35.6833 43.2437 24.9611 46.6009 16.4425 46.6009ZM8.47108 24.9199C4.00473 29.475 1.81592 34.1336 2.30396 38.0379C2.59975 40.5077 4.00473 42.5634 6.34143 43.998C14.372 48.9228 31.4092 45.8023 44.335 37.0618C50.9606 32.5807 55.5453 27.2122 56.9207 22.3317C57.1425 21.5479 56.9798 20.8824 56.4474 20.4091C55.2643 19.3443 52.617 19.3591 49.8514 20.4535L32.6219 27.2418C30.8177 27.9517 28.9838 28.2327 27.5788 27.996L8.47108 24.9199Z" fill="url(#paint11_linear_1_1089)"/>
<path d="M18.1729 47.015C12.8044 47.015 8.13098 45.8171 5.04002 43.3325C2.77727 41.5134 1.53497 39.088 1.43145 36.3224C1.28355 31.93 3.91604 26.9904 8.87044 22.4057L8.9296 22.3613L27.8303 27.5376C29.1613 27.9073 30.9656 27.7742 32.7699 27.1974L50.517 21.4887C53.3861 20.5718 56.0334 20.7789 57.2461 22.036C57.8968 22.7015 58.0595 23.574 57.7046 24.5649C55.9003 29.7855 50.8128 35.2132 43.7731 39.4725C35.6094 44.4121 26.1147 47.015 18.1729 47.015ZM8.98875 22.6571C4.13788 27.1826 1.54976 32.0335 1.69765 36.3224C1.78639 39.014 2.99911 41.3655 5.20271 43.1402C12.7748 49.2334 30.0191 47.4735 43.6548 39.2359C50.6501 35.0061 55.6932 29.6228 57.4679 24.4614C57.7785 23.574 57.6306 22.7902 57.0686 22.1986C55.9299 21.0303 53.3417 20.8528 50.6057 21.7254L32.8586 27.434C30.9952 28.0256 29.1465 28.1587 27.7563 27.7742L8.98875 22.6571Z" fill="url(#paint12_linear_1_1089)"/>
<path d="M20.1547 47.6656C13.3368 47.6656 7.42113 45.8761 3.96044 42.2823C1.86037 40.0935 0.825121 37.3279 0.987803 34.3109C1.23922 29.5636 4.3006 24.4908 9.59515 20.0097L9.6543 19.9653L28.0374 27.36C29.3388 27.8776 31.1431 27.9219 32.9918 27.4635L51.1677 22.9528C53.9777 22.2577 56.551 22.6866 57.7194 24.0324C58.3997 24.8162 58.518 25.8515 58.0743 26.9311C55.8264 32.4031 50.2952 37.8012 42.9006 41.7499C35.5355 45.6838 27.3423 47.6656 20.1547 47.6656ZM9.71346 20.2463C4.50765 24.6683 1.50543 29.6671 1.25401 34.3109C1.10612 37.254 2.097 39.9456 4.1527 42.0901C11.1628 49.3959 28.481 49.1297 42.7822 41.4985C50.1177 37.5793 55.6045 32.2256 57.8377 26.8128C58.2518 25.8071 58.1483 24.9049 57.5271 24.1803C56.4179 22.8936 53.9481 22.5091 51.2417 23.1746L33.0657 27.6853C31.1579 28.1586 29.2944 28.1142 27.9486 27.5818L9.71346 20.2463Z" fill="url(#paint13_linear_1_1089)"/>
<path d="M22.2694 48.553C13.9135 48.553 6.65195 45.9797 2.98422 41.0253C-2.02934 34.237 1.00245 24.7719 10.5415 17.4512L10.6155 17.3921L28.2886 27.153C29.5309 27.8333 31.3204 28.0551 33.2135 27.7298L51.7148 24.5797C54.4952 24.1064 56.9206 24.7276 58.0446 26.2213C58.7545 27.153 58.8284 28.3361 58.2517 29.5341C55.5304 35.2427 49.5556 40.5669 41.8504 44.1459C35.4023 47.1037 28.5253 48.553 22.2694 48.553ZM10.6303 17.7175C1.26866 24.9346 -1.71877 34.2223 3.19126 40.8626C6.23785 44.974 11.9317 47.5622 19.2376 48.1389C26.5583 48.7157 34.5445 47.2072 41.7173 43.8796C49.3633 40.3302 55.3086 35.0505 58.0002 29.401C58.5327 28.277 58.4735 27.2269 57.8228 26.3692C56.7727 24.9938 54.3917 24.3874 51.7444 24.8311L33.243 27.9812C31.3056 28.3066 29.4422 28.0847 28.1555 27.3748L10.6303 17.7175Z" fill="url(#paint14_linear_1_1089)"/>
<path d="M24.3843 49.7215C14.4755 49.7215 5.80898 46.1129 2.11167 39.5613C-2.29553 31.7526 1.56446 21.7846 11.6951 14.7745L11.769 14.7153L28.5253 26.9608C29.7084 27.8186 31.4683 28.2179 33.3762 28.0552L52.0846 26.3988C54.7762 26.1622 57.0981 27.0052 58.1482 28.5876C58.8728 29.6968 58.8876 31.0279 58.1777 32.3441C54.9685 38.2746 48.5499 43.4656 40.5637 46.601C35.1804 48.7158 29.6049 49.7215 24.3843 49.7215ZM11.769 15.0555C1.81588 21.9769 -1.97017 31.7673 2.3483 39.443C5.02515 44.1903 10.4824 47.5327 17.6995 48.8489C24.9463 50.1652 33.0212 49.2926 40.4602 46.3643C48.3872 43.2438 54.7614 38.0971 57.9411 32.2258C58.6066 30.9983 58.6066 29.756 57.9263 28.7355C56.9354 27.227 54.7023 26.4284 52.1141 26.665L33.4057 28.3214C31.4388 28.4989 29.6049 28.0848 28.3774 27.1827L11.769 15.0555Z" fill="url(#paint15_linear_1_1089)"/>
<path d="M26.4105 51.1857C22.8167 51.1857 19.3116 50.6977 16.0136 49.7068C8.85561 47.5772 3.6498 43.377 1.37225 37.905C-2.32506 29.0314 2.37792 18.6198 13.0706 11.9942L13.1593 11.9351L28.7915 26.7835C29.8859 27.8335 31.6163 28.4103 33.5241 28.4251L52.3064 28.3955H52.3212C54.8946 28.3955 57.0982 29.4455 58.0447 31.1463C58.7841 32.4625 58.7102 33.9563 57.8376 35.3908C54.1255 41.4988 47.2781 46.5271 39.0405 49.1596C34.8995 50.5054 30.6106 51.1857 26.4105 51.1857ZM13.1297 12.2752C2.59976 18.8269 -2.01449 29.0758 1.62367 37.8015C3.87164 43.1995 9.0183 47.3257 16.1024 49.4406C23.2012 51.5555 31.3205 51.3632 38.9813 48.9082C47.1598 46.2905 53.9481 41.3065 57.6306 35.2577C58.444 33.9119 58.5179 32.5069 57.8228 31.2794C56.9059 29.6674 54.8058 28.6617 52.3212 28.6617H52.3064L33.5241 28.6913H33.5093C31.5423 28.6913 29.7528 28.0701 28.6141 26.9757L13.1297 12.2752Z" fill="url(#paint16_linear_1_1089)"/>
<path d="M28.0817 52.9455C23.2752 52.9455 18.5722 52.0286 14.3425 50.1947C7.39153 47.2073 2.58502 42.179 0.780734 36.0414C-2.13275 26.0882 3.45759 15.2773 14.6974 9.11018L14.8009 9.05103L29.0874 26.6059C30.093 27.8334 31.7494 28.6468 33.6572 28.8243L52.3509 30.599C54.8503 30.8356 56.8764 32.0779 57.7489 33.9266C58.4588 35.4351 58.2961 37.1654 57.2757 38.6887C53.046 44.9593 45.7844 49.7363 37.3546 51.8216C34.2784 52.5758 31.1579 52.9455 28.0817 52.9455ZM14.727 9.40597C3.67943 15.5139 -1.82218 26.177 1.04694 35.9823C2.82165 42.0459 7.58379 47.015 14.4608 49.9729C21.3378 52.9307 29.4571 53.5075 37.2954 51.5701C45.6661 49.5144 52.8685 44.7671 57.0539 38.5556C58.0299 37.1062 58.1926 35.509 57.5123 34.0597C56.6841 32.2997 54.7467 31.1018 52.3361 30.88L33.6129 29.12C31.6459 28.9426 29.9156 28.0848 28.8655 26.7981L14.727 9.40597Z" fill="url(#paint17_linear_1_1089)"/>
<path d="M29.3979 55.016C23.423 55.016 17.6108 53.5075 12.6269 50.5792C5.9717 46.6896 1.60887 40.7887 0.366576 33.9709C-1.65955 22.9381 4.84772 11.7574 16.5608 6.15228L16.6643 6.10791L29.3683 26.4727C30.2557 27.9073 31.8529 28.9425 33.7163 29.3123L52.2029 32.98C54.584 33.4532 56.4474 34.9174 57.2165 36.8991C57.8968 38.6591 57.5862 40.5817 56.4031 42.1789C51.6409 48.5679 43.9949 53.049 35.4171 54.5131C33.4058 54.8533 31.3944 55.016 29.3979 55.016ZM16.5756 6.44806C5.02519 12.0236 -1.37856 23.0564 0.617994 33.9413C1.86029 40.6704 6.16396 46.5122 12.76 50.3574C19.356 54.2174 27.3865 55.5928 35.3727 54.2469C43.8913 52.8124 51.4782 48.346 56.196 42.0162C57.3348 40.4929 57.6158 38.6591 56.9798 36.9879C56.2552 35.0949 54.4509 33.6899 52.1585 33.2462L33.672 29.5785C31.7346 29.1939 30.0782 28.1143 29.1465 26.6206L16.5756 6.44806Z" fill="url(#paint18_linear_1_1089)"/>
<path d="M30.3297 57.3823C23.2309 57.3823 16.413 55.1047 10.8818 50.8454C4.5964 45.9946 0.765984 39.2063 0.115257 31.7229C-0.949569 19.5809 6.519 8.10448 18.6758 3.15008L18.7941 3.10571L18.8532 3.22403L29.679 26.3692C30.448 28.0108 31.9417 29.2827 33.7608 29.8595L51.8628 35.5829C54.1108 36.2928 55.8264 37.9788 56.4623 40.1084C57.0687 42.1198 56.6102 44.2494 55.2348 45.9206C49.9402 52.3835 41.9245 56.5245 33.2432 57.2788C32.2671 57.3379 31.3058 57.3823 30.3297 57.3823ZM18.661 3.43108C6.68169 8.37069 -0.668574 19.714 0.381463 31.6933C1.03219 39.1028 4.81824 45.8319 11.0445 50.6384C17.2708 55.4449 25.1535 57.6929 33.2136 56.9978C41.8209 56.2435 49.7628 52.1321 55.0278 45.7283C56.344 44.1163 56.7729 42.0902 56.1961 40.1676C55.5897 38.1267 53.9333 36.5146 51.7741 35.8195L33.6721 30.0961C31.7643 29.4897 30.2262 28.1735 29.4276 26.4727L18.661 3.43108Z" fill="url(#paint19_linear_1_1089)"/>
<path d="M30.8621 60C22.6985 60 14.9785 56.7907 9.13672 50.949C3.29496 45.1072 0.0856934 37.3872 0.0856934 29.2236C0.0856934 15.9872 8.51557 4.25931 21.0569 0.0443682L21.1752 0L29.9748 26.2213C30.5959 28.07 31.9713 29.5933 33.746 30.3919L51.2861 38.3042C53.4453 39.2803 54.9538 41.1585 55.4419 43.4656C55.9151 45.7579 55.3088 48.0503 53.7559 49.7806C47.9141 56.2879 39.573 60 30.8621 60ZM21.0125 0.340153C8.64867 4.55509 0.337111 16.1499 0.337111 29.2236C0.337111 37.3133 3.53159 44.9593 9.31419 50.7567C15.0968 56.5541 22.7576 59.7338 30.8621 59.7338C39.4991 59.7338 47.781 56.0365 53.5636 49.6032C55.0573 47.932 55.6489 45.7284 55.1904 43.5248C54.7172 41.2916 53.2678 39.4725 51.1826 38.5408L33.6425 30.6285C31.7939 29.8003 30.3741 28.2179 29.7234 26.2953L21.0125 0.340153Z" fill="url(#paint20_linear_1_1089)"/>
<path d="M66.6817 51.3333H66.3268V49.2332H65.469V48.9226H67.5247V49.2332H66.6817V51.3333Z" fill="black"/>
<path d="M68.1163 50.2389C68.1311 50.4755 68.2198 50.6678 68.3825 50.8305C68.5452 50.9931 68.7375 51.0671 68.9741 51.0671C69.3142 51.0671 69.5952 50.8748 69.7283 50.579L69.9946 50.7565C69.7875 51.1558 69.403 51.3777 68.9741 51.3777C68.6339 51.3777 68.3381 51.2593 68.1015 51.0227C67.8649 50.7861 67.7466 50.4755 67.7466 50.1354C67.7466 49.7952 67.8649 49.5142 68.0867 49.2628C68.3086 49.0114 68.5896 48.8931 68.9149 48.8931C69.2699 48.8931 69.5509 49.0114 69.7579 49.2332C69.9502 49.4698 70.0537 49.7508 70.0537 50.1206C70.0537 50.1797 70.0537 50.2093 70.0537 50.2389H68.1163ZM69.7136 49.9431C69.6692 49.4994 69.3882 49.1889 68.9297 49.1889C68.7227 49.1889 68.5452 49.2628 68.3973 49.4107C68.2494 49.5586 68.1607 49.7361 68.1163 49.9431H69.7136Z" fill="black"/>
<path d="M72.5529 48.9226L71.636 50.1057L72.5825 51.3333H72.1684L71.429 50.3572L70.6747 51.3333H70.2754L71.2219 50.1057L70.305 48.9226H70.7191L71.429 49.8543L72.1388 48.9226H72.5529Z" fill="black"/>
<path d="M74.8157 48.9226H75.1706V51.3333H74.8157V50.2536H73.4255V51.3333H73.0706V48.9226H73.4255V49.9431H74.8157V48.9226Z" fill="black"/>
<path d="M76.132 51.0079C75.8954 50.7713 75.7771 50.4755 75.7771 50.1354C75.7771 49.7804 75.8954 49.4846 76.132 49.248C76.3687 49.0114 76.6645 48.8931 77.0194 48.8931C77.3596 48.8931 77.6553 49.0114 77.892 49.248C78.1286 49.4846 78.2469 49.7804 78.2469 50.1206C78.2469 50.4755 78.1286 50.7713 77.892 51.0079C77.6553 51.2446 77.3595 51.3629 77.0046 51.3629C76.6792 51.3777 76.3687 51.2446 76.132 51.0079ZM77.6553 50.7861C77.818 50.6086 77.9068 50.3868 77.9068 50.1354C77.9068 49.8839 77.818 49.6473 77.6553 49.4698C77.4927 49.2924 77.2708 49.1889 77.0194 49.1889C76.768 49.1889 76.5609 49.2776 76.3835 49.4551C76.2208 49.6325 76.132 49.8544 76.132 50.1058C76.132 50.3572 76.206 50.5938 76.3835 50.7713C76.5461 50.9488 76.768 51.0523 77.0194 51.0523C77.2856 51.0671 77.4927 50.9783 77.6553 50.7861Z" fill="black"/>
<path d="M79.5632 49.2332L79.4301 50.3867C79.4006 50.6529 79.3118 50.8896 79.1787 51.067C79.0456 51.2593 78.8534 51.348 78.6019 51.3333H78.5872V51.0227C78.7351 51.0227 78.8534 50.9487 78.9273 50.8156C79.0013 50.6677 79.0604 50.5051 79.0752 50.3276L79.2379 48.9226H80.9239V51.3333H80.5689V49.2332H79.5632Z" fill="black"/>
<path d="M81.9148 51.0079C81.6781 50.7713 81.5598 50.4755 81.5598 50.1354C81.5598 49.7804 81.6781 49.4846 81.9148 49.248C82.1514 49.0114 82.4472 48.8931 82.8021 48.8931C83.1423 48.8931 83.4381 49.0114 83.6747 49.248C83.9113 49.4846 84.0296 49.7804 84.0296 50.1206C84.0296 50.4755 83.9113 50.7713 83.6747 51.0079C83.4381 51.2446 83.1423 51.3629 82.7873 51.3629C82.4472 51.3777 82.1514 51.2446 81.9148 51.0079ZM83.4381 50.7861C83.6007 50.6086 83.6895 50.3868 83.6895 50.1354C83.6895 49.8839 83.6007 49.6473 83.4381 49.4698C83.2754 49.2924 83.0535 49.1889 82.8021 49.1889C82.5507 49.1889 82.3437 49.2776 82.1662 49.4551C82.0035 49.6325 81.9148 49.8544 81.9148 50.1058C81.9148 50.3572 81.9887 50.5938 82.1662 50.7713C82.3289 50.9488 82.5507 51.0523 82.8021 51.0523C83.0535 51.0671 83.2754 50.9783 83.4381 50.7861Z" fill="black"/>
<path d="M84.6655 51.3333V48.9226H86.2776V49.2332H85.0205V51.3333H84.6655Z" fill="black"/>
<path d="M87.1057 48.9226V50.8452L88.5106 48.9226H88.8656V51.3333H88.5106V49.4254L87.1057 51.3333H86.7507V48.9226H87.1057Z" fill="black"/>
<path d="M90.0192 48.9226V50.8452L91.4242 48.9226H91.7792V51.3333H91.4242V49.4254L90.0192 51.3333H89.6643V48.9226H90.0192Z" fill="black"/>
<path d="M94.2636 50.7862C94.4263 50.9637 94.6333 51.0672 94.8847 51.0672C95.2545 51.0672 95.5059 50.8898 95.639 50.52L95.9496 50.6531C95.8017 51.0672 95.4171 51.363 94.8847 51.363C94.5446 51.363 94.2488 51.2447 94.0122 51.0081C93.7755 50.7714 93.6572 50.4757 93.6572 50.1207C93.6572 49.7806 93.7755 49.47 94.0122 49.2334C94.2488 48.9967 94.5446 48.8784 94.8847 48.8784C95.4319 48.8784 95.8017 49.1742 95.9496 49.5883L95.639 49.7214C95.5355 49.4256 95.284 49.189 94.8847 49.189C94.6333 49.189 94.4263 49.2777 94.2636 49.4552C94.1009 49.6327 94.027 49.8545 94.027 50.1059C94.027 50.3721 94.1009 50.594 94.2636 50.7862Z" fill="black"/>
<path d="M96.7187 51.0079C96.4821 50.7713 96.3638 50.4755 96.3638 50.1354C96.3638 49.7804 96.4821 49.4846 96.7187 49.248C96.9553 49.0114 97.2511 48.8931 97.6061 48.8931C97.9462 48.8931 98.242 49.0114 98.4786 49.248C98.7153 49.4846 98.8336 49.7804 98.8336 50.1206C98.8336 50.4755 98.7153 50.7713 98.4786 51.0079C98.242 51.2446 97.9462 51.3629 97.5913 51.3629C97.2511 51.3777 96.9553 51.2446 96.7187 51.0079ZM98.242 50.7861C98.4047 50.6086 98.4934 50.3868 98.4934 50.1354C98.4934 49.8839 98.4047 49.6473 98.242 49.4698C98.0793 49.2924 97.8575 49.1889 97.6061 49.1889C97.3546 49.1889 97.1476 49.2776 96.9701 49.4551C96.8074 49.6325 96.7187 49.8544 96.7187 50.1058C96.7187 50.3572 96.7927 50.5938 96.9701 50.7713C97.1328 50.9488 97.3546 51.0523 97.6061 51.0523C97.8575 51.0671 98.0645 50.9783 98.242 50.7861Z" fill="black"/>
<path d="M99.2329 50.7861L99.5287 50.6382C99.6766 50.9192 99.8984 51.0671 100.194 51.0671C100.52 51.0671 100.727 50.8896 100.727 50.6678C100.727 50.4164 100.549 50.2685 100.209 50.2685H99.8689V49.9727H100.209C100.534 49.9727 100.697 49.8248 100.697 49.5882C100.697 49.3959 100.505 49.2036 100.194 49.2036C99.9132 49.2036 99.6914 49.3367 99.5435 49.6325L99.2625 49.4846C99.44 49.1001 99.7949 48.8931 100.209 48.8931C100.446 48.8931 100.653 48.9522 100.815 49.0853C100.978 49.2184 101.052 49.3663 101.052 49.5586C101.052 49.81 100.919 49.9875 100.667 50.1058C100.948 50.1945 101.096 50.3868 101.096 50.6826C101.096 50.8748 101.008 51.0523 100.845 51.1854C100.682 51.3185 100.46 51.3924 100.209 51.3924C99.7653 51.3777 99.4104 51.1558 99.2329 50.7861Z" fill="black"/>
<path d="M103.448 48.9226H103.803V51.3333H103.448V50.2536H102.072V51.3333H101.718V48.9226H102.072V49.9431H103.448V48.9226Z" fill="black"/>
<path d="M106.036 49.9432V49.7806C106.036 49.3813 105.829 49.189 105.429 49.189C105.119 49.189 104.882 49.3517 104.734 49.6622L104.453 49.4996C104.631 49.0855 104.956 48.8784 105.444 48.8784C105.888 48.8784 106.184 49.0411 106.317 49.3813C106.361 49.4996 106.391 49.6327 106.391 49.7806V51.3334H106.051V50.9045C105.858 51.2151 105.577 51.363 105.237 51.363C105.001 51.363 104.794 51.2891 104.646 51.1708C104.498 51.0376 104.424 50.8602 104.424 50.6679V50.6383C104.424 50.4017 104.513 50.2242 104.705 50.1207C104.897 50.0024 105.119 49.9432 105.37 49.9432H106.036ZM106.036 50.239H105.37C105.089 50.239 104.794 50.3278 104.779 50.6383C104.779 50.9045 105.001 51.0672 105.296 51.0672C105.518 51.0672 105.696 50.9933 105.829 50.8602C105.962 50.7271 106.036 50.5496 106.036 50.3278V50.239Z" fill="black"/>
<path d="M108.89 48.9226H109.245V51.3333H108.89V50.2536H107.5V51.3333H107.145V48.9226H107.5V49.9431H108.875V48.9226H108.89Z" fill="black"/>
<path d="M110.384 48.9226V50.8452L111.789 48.9226H112.144V51.3333H111.789V49.4254L110.384 51.3333H110.029V48.9226H110.384Z" fill="black"/>
<path d="M112.721 51.3334L113.431 50.4016C113.061 50.3129 112.824 50.0615 112.824 49.677C112.824 49.4699 112.898 49.3072 113.046 49.1593C113.194 49.0114 113.431 48.9375 113.726 48.9375H114.791V51.3481H114.436V50.4756H113.786L113.15 51.3481H112.721V51.3334ZM114.436 49.2333H113.741C113.416 49.2333 113.164 49.3812 113.164 49.6918C113.164 49.958 113.371 50.165 113.756 50.165H114.451V49.2333H114.436Z" fill="black"/>
<path d="M102.265 13.9314H96.4674L85.76 40.1971L81.264 32.5067C85.4642 31.1017 87.9044 27.9072 87.9044 23.5592C87.9044 20.8084 87.0318 18.5309 85.3015 16.6822C83.5859 14.8483 80.8647 13.9314 77.2265 13.9314H65.4839V45.2255H70.3939V33.3645H76.354L83.1423 45.2255H83.719H88.6882H88.7474L91.6313 37.8752H106.983L109.822 45.2255H114.939L102.265 13.9314ZM70.3939 28.9129V18.4865H76.7089C81.826 18.4865 82.9056 21.2817 82.9056 23.6775C82.9056 26.5614 81.0718 28.9129 76.7089 28.9129H70.3939ZM93.3912 33.5124L99.3069 18.6492L105.267 33.5124H93.3912Z" fill="black"/>
<defs>
<linearGradient id="paint0_linear_1_1089" x1="11.6644" y1="28.9736" x2="44.7866" y2="28.9736" gradientUnits="userSpaceOnUse">
<stop stop-color="#FBC100"/>
<stop offset="0.9966" stop-color="#CC03D8"/>
</linearGradient>
<linearGradient id="paint1_linear_1_1089" x1="10.6583" y1="29.0321" x2="46.03" y2="29.0321" gradientUnits="userSpaceOnUse">
<stop stop-color="#FBC100"/>
<stop offset="0.9966" stop-color="#CC03D8"/>
</linearGradient>
<linearGradient id="paint2_linear_1_1089" x1="9.64981" y1="29.1338" x2="47.2889" y2="29.1338" gradientUnits="userSpaceOnUse">
<stop stop-color="#FBC100"/>
<stop offset="0.9966" stop-color="#CC03D8"/>
</linearGradient>
<linearGradient id="paint3_linear_1_1089" x1="8.64769" y1="29.2702" x2="48.5533" y2="29.2702" gradientUnits="userSpaceOnUse">
<stop stop-color="#FBC100"/>
<stop offset="0.9966" stop-color="#CC03D8"/>
</linearGradient>
<linearGradient id="paint4_linear_1_1089" x1="7.66085" y1="29.4562" x2="49.8127" y2="29.4562" gradientUnits="userSpaceOnUse">
<stop stop-color="#FBC100"/>
<stop offset="0.9966" stop-color="#CC03D8"/>
</linearGradient>
<linearGradient id="paint5_linear_1_1089" x1="6.71513" y1="29.6997" x2="51.0567" y2="29.6997" gradientUnits="userSpaceOnUse">
<stop stop-color="#FBC100"/>
<stop offset="0.9966" stop-color="#CC03D8"/>
</linearGradient>
<linearGradient id="paint6_linear_1_1089" x1="5.78767" y1="30.0071" x2="52.275" y2="30.0071" gradientUnits="userSpaceOnUse">
<stop stop-color="#FBC100"/>
<stop offset="0.9966" stop-color="#CC03D8"/>
</linearGradient>
<linearGradient id="paint7_linear_1_1089" x1="4.90303" y1="30.3947" x2="53.456" y2="30.3947" gradientUnits="userSpaceOnUse">
<stop stop-color="#FBC100"/>
<stop offset="0.9966" stop-color="#CC03D8"/>
</linearGradient>
<linearGradient id="paint8_linear_1_1089" x1="4.07076" y1="30.8671" x2="54.5776" y2="30.8671" gradientUnits="userSpaceOnUse">
<stop stop-color="#FBC100"/>
<stop offset="0.9966" stop-color="#CC03D8"/>
</linearGradient>
<linearGradient id="paint9_linear_1_1089" x1="3.29955" y1="31.4482" x2="55.5999" y2="31.4482" gradientUnits="userSpaceOnUse">
<stop stop-color="#FBC100"/>
<stop offset="0.9966" stop-color="#CC03D8"/>
</linearGradient>
<linearGradient id="paint10_linear_1_1089" x1="2.59763" y1="32.1493" x2="56.505" y2="32.1493" gradientUnits="userSpaceOnUse">
<stop stop-color="#FBC100"/>
<stop offset="0.9966" stop-color="#CC03D8"/>
</linearGradient>
<linearGradient id="paint11_linear_1_1089" x1="1.97233" y1="32.9805" x2="57.2773" y2="32.9805" gradientUnits="userSpaceOnUse">
<stop stop-color="#FBC100"/>
<stop offset="0.9966" stop-color="#CC03D8"/>
</linearGradient>
<linearGradient id="paint12_linear_1_1089" x1="1.42902" y1="33.9678" x2="57.9" y2="33.9678" gradientUnits="userSpaceOnUse">
<stop stop-color="#FBC100"/>
<stop offset="0.9966" stop-color="#CC03D8"/>
</linearGradient>
<linearGradient id="paint13_linear_1_1089" x1="0.971697" y1="33.802" x2="58.3509" y2="33.802" gradientUnits="userSpaceOnUse">
<stop stop-color="#FBC100"/>
<stop offset="0.9966" stop-color="#CC03D8"/>
</linearGradient>
<linearGradient id="paint14_linear_1_1089" x1="0.586848" y1="32.9747" x2="58.6238" y2="32.9747" gradientUnits="userSpaceOnUse">
<stop stop-color="#FBC100"/>
<stop offset="0.9966" stop-color="#CC03D8"/>
</linearGradient>
<linearGradient id="paint15_linear_1_1089" x1="0.312658" y1="32.2263" x2="58.6987" y2="32.2263" gradientUnits="userSpaceOnUse">
<stop stop-color="#FBC100"/>
<stop offset="0.9966" stop-color="#CC03D8"/>
</linearGradient>
<linearGradient id="paint16_linear_1_1089" x1="0.127309" y1="31.5649" x2="58.5604" y2="31.5649" gradientUnits="userSpaceOnUse">
<stop stop-color="#FBC100"/>
<stop offset="0.9966" stop-color="#CC03D8"/>
</linearGradient>
<linearGradient id="paint17_linear_1_1089" x1="0.0251212" y1="31.0126" x2="58.1858" y2="31.0126" gradientUnits="userSpaceOnUse">
<stop stop-color="#FBC100"/>
<stop offset="0.9966" stop-color="#CC03D8"/>
</linearGradient>
<linearGradient id="paint18_linear_1_1089" x1="-0.00484163" y1="30.5667" x2="57.5795" y2="30.5667" gradientUnits="userSpaceOnUse">
<stop stop-color="#FBC100"/>
<stop offset="0.9966" stop-color="#CC03D8"/>
</linearGradient>
<linearGradient id="paint19_linear_1_1089" x1="0.0210495" y1="30.2307" x2="56.722" y2="30.2307" gradientUnits="userSpaceOnUse">
<stop stop-color="#FBC100"/>
<stop offset="0.9966" stop-color="#CC03D8"/>
</linearGradient>
<linearGradient id="paint20_linear_1_1089" x1="0.0781508" y1="30.0074" x2="55.6042" y2="30.0074" gradientUnits="userSpaceOnUse">
<stop stop-color="#FBC100"/>
<stop offset="0.9966" stop-color="#CC03D8"/>
</linearGradient>
</defs>
</svg>
