<svg width="17" height="16" viewBox="0 0 17 16" fill="none" xmlns="http://www.w3.org/2000/svg">
<path d="M13.7375 2.33513C12.25 0.821646 10.1938 0 8.09375 0C3.6313 0 0.0437783 3.58918 0.0874933 7.95673C0.0874933 9.34053 0.481242 10.6811 1.13753 11.8919L0 16L4.24375 14.9189C5.425 15.5676 6.73745 15.8703 8.05004 15.8703C12.4688 15.8703 16.0563 12.2811 16.0563 7.91358C16.0563 5.79462 15.225 3.8054 13.7375 2.33513ZM8.09375 14.5298C6.9125 14.5298 5.73125 14.2271 4.72499 13.6217L4.46251 13.492L1.92503 14.1406L2.58126 11.6758L2.40627 11.4163C0.481242 8.34604 1.40001 4.28107 4.55001 2.37834C7.7 0.475668 11.7688 1.38379 13.6938 4.4973C15.6188 7.61081 14.7 11.6324 11.5501 13.5352C10.5437 14.1838 9.31878 14.5298 8.09375 14.5298ZM11.9437 9.72983L11.4625 9.51361C11.4625 9.51361 10.7626 9.2109 10.325 8.99467C10.2813 8.99467 10.2375 8.9514 10.1938 8.9514C10.0625 8.9514 9.975 8.99467 9.88751 9.03794C9.88751 9.03794 9.8438 9.08115 9.23128 9.77305C9.1875 9.85953 9.10001 9.9028 9.01252 9.9028H8.96874C8.92503 9.9028 8.83753 9.85953 8.79376 9.81632L8.57499 9.72983C8.09375 9.51361 7.65629 9.25411 7.30625 8.90819C7.21876 8.82171 7.08749 8.73523 7 8.64875C6.69374 8.34604 6.38748 8.00006 6.16878 7.61088L6.125 7.52439C6.08129 7.48112 6.08129 7.43791 6.03751 7.35143C6.03751 7.26496 6.03751 7.17848 6.08129 7.13521C6.08129 7.13521 6.25627 6.91898 6.38748 6.78929C6.47504 6.70275 6.51875 6.57306 6.60625 6.48658C6.69374 6.35683 6.73752 6.18387 6.69374 6.05412C6.65002 5.83789 6.125 4.67032 5.9938 4.41089C5.90624 4.28114 5.81881 4.23793 5.68754 4.19466H5.2063C5.11874 4.19466 5.03131 4.23792 4.94376 4.23792L4.89998 4.28113C4.81249 4.32441 4.72499 4.41089 4.6375 4.45409C4.55001 4.54064 4.50623 4.62705 4.41874 4.71359C4.11248 5.10278 3.93749 5.57845 3.93749 6.05412C3.93749 6.40004 4.02499 6.74602 4.15626 7.04873L4.20003 7.17848C4.59378 8.00006 5.11874 8.73523 5.81881 9.38386L5.9938 9.55682C6.125 9.68657 6.25627 9.77305 6.34377 9.90273C7.26254 10.6812 8.31251 11.2433 9.49376 11.546C9.62503 11.5892 9.80002 11.5892 9.93129 11.6325H10.3688C10.5875 11.6325 10.85 11.546 11.025 11.4595C11.1563 11.3731 11.2437 11.3731 11.3312 11.2866L11.4188 11.2C11.5063 11.1136 11.5938 11.0704 11.6813 10.9839C11.7688 10.8974 11.8563 10.8109 11.9 10.7244C11.9875 10.5514 12.0312 10.3352 12.075 10.119V9.81632C12.075 9.81632 12.0312 9.77304 11.9437 9.72983Z" fill="white"/>
</svg>
