<svg width="154" height="17" viewBox="0 0 154 17" fill="none" xmlns="http://www.w3.org/2000/svg">
<path d="M6.8 13.096C5.95733 13.096 5.17333 12.9573 4.448 12.68C3.73333 12.392 3.10933 11.992 2.576 11.48C2.05333 10.9573 1.64267 10.3547 1.344 9.672C1.056 8.97867 0.912 8.22133 0.912 7.4C0.912 6.57867 1.056 5.82667 1.344 5.144C1.64267 4.45067 2.05333 3.848 2.576 3.336C3.10933 2.81333 3.73333 2.41333 4.448 2.136C5.16267 1.848 5.94667 1.704 6.8 1.704C7.64267 1.704 8.42133 1.848 9.136 2.136C9.85067 2.41333 10.4693 2.808 10.992 3.32C11.5253 3.832 11.936 4.43467 12.224 5.128C12.5227 5.82133 12.672 6.57867 12.672 7.4C12.672 8.22133 12.5227 8.97867 12.224 9.672C11.936 10.3653 11.5253 10.968 10.992 11.48C10.4693 11.992 9.85067 12.392 9.136 12.68C8.42133 12.9573 7.64267 13.096 6.8 13.096ZM6.8 12.04C7.472 12.04 8.09067 11.928 8.656 11.704C9.232 11.4693 9.728 11.144 10.144 10.728C10.5707 10.3013 10.9013 9.81067 11.136 9.256C11.3707 8.69067 11.488 8.072 11.488 7.4C11.488 6.728 11.3707 6.11467 11.136 5.56C10.9013 4.99467 10.5707 4.504 10.144 4.088C9.728 3.66133 9.232 3.336 8.656 3.112C8.09067 2.87733 7.472 2.76 6.8 2.76C6.128 2.76 5.504 2.87733 4.928 3.112C4.352 3.336 3.85067 3.66133 3.424 4.088C3.008 4.504 2.67733 4.99467 2.432 5.56C2.19733 6.11467 2.08 6.728 2.08 7.4C2.08 8.06133 2.19733 8.67467 2.432 9.24C2.67733 9.80533 3.008 10.3013 3.424 10.728C3.85067 11.144 4.352 11.4693 4.928 11.704C5.504 11.928 6.128 12.04 6.8 12.04ZM19.3214 13.096C18.6387 13.096 18.0307 12.984 17.4974 12.76C16.9747 12.536 16.5267 12.1947 16.1534 11.736C15.78 11.2773 15.4974 10.712 15.3054 10.04C15.1134 9.35733 15.0174 8.568 15.0174 7.672C15.0174 6.872 15.092 6.17333 15.2414 5.576C15.3907 4.968 15.5987 4.44533 15.8654 4.008C16.132 3.57067 16.4414 3.20267 16.7934 2.904C17.156 2.59467 17.5454 2.34933 17.9614 2.168C18.388 1.976 18.8254 1.832 19.2734 1.736L23.0494 0.855999L23.2414 1.912L19.6894 2.712C19.4654 2.76533 19.1934 2.84 18.8734 2.936C18.564 3.032 18.244 3.176 17.9134 3.368C17.5934 3.56 17.2947 3.82667 17.0174 4.168C16.74 4.50933 16.516 4.952 16.3454 5.496C16.1854 6.02933 16.1054 6.696 16.1054 7.496C16.1054 7.66667 16.1107 7.80533 16.1214 7.912C16.132 8.008 16.1427 8.11467 16.1534 8.232C16.1747 8.33867 16.1907 8.49867 16.2014 8.712L15.7054 8.296C15.8227 7.64533 16.0627 7.08 16.4254 6.6C16.788 6.10933 17.2414 5.73067 17.7854 5.464C18.34 5.18667 18.9534 5.048 19.6254 5.048C20.404 5.048 21.0974 5.21867 21.7054 5.56C22.3134 5.89067 22.788 6.35467 23.1294 6.952C23.4814 7.54933 23.6574 8.24267 23.6574 9.032C23.6574 9.81067 23.476 10.5093 23.1134 11.128C22.7614 11.7467 22.26 12.232 21.6094 12.584C20.9587 12.9253 20.196 13.096 19.3214 13.096ZM19.4494 12.152C20.0467 12.152 20.5747 12.0187 21.0334 11.752C21.492 11.4747 21.8494 11.1013 22.1054 10.632C22.372 10.1627 22.5054 9.63467 22.5054 9.048C22.5054 8.472 22.372 7.96 22.1054 7.512C21.8494 7.064 21.492 6.712 21.0334 6.456C20.5747 6.18933 20.0414 6.056 19.4334 6.056C18.836 6.056 18.308 6.184 17.8494 6.44C17.3907 6.68533 17.028 7.032 16.7614 7.48C16.5054 7.928 16.3774 8.44533 16.3774 9.032C16.3774 9.61867 16.5054 10.1467 16.7614 10.616C17.028 11.0853 17.3907 11.4587 17.8494 11.736C18.3187 12.0133 18.852 12.152 19.4494 12.152ZM30.7482 13.08C30.0229 13.08 29.3669 12.9147 28.7802 12.584C28.1936 12.2427 27.7242 11.7573 27.3722 11.128C27.0309 10.488 26.8602 9.70933 26.8602 8.792C26.8602 7.87467 27.0309 7.10133 27.3722 6.472C27.7136 5.832 28.1776 5.34667 28.7642 5.016C29.3509 4.68533 30.0122 4.52 30.7482 4.52C31.5482 4.52 32.2629 4.70133 32.8923 5.064C33.5323 5.416 34.0336 5.91733 34.3962 6.568C34.7589 7.208 34.9402 7.94933 34.9402 8.792C34.9402 9.64533 34.7589 10.392 34.3962 11.032C34.0336 11.672 33.5323 12.1733 32.8923 12.536C32.2629 12.8987 31.5482 13.08 30.7482 13.08ZM26.4122 16.104V4.6H27.5002V7.128L27.3882 8.808L27.5482 10.504V16.104H26.4122ZM30.6682 12.072C31.2656 12.072 31.7989 11.9387 32.2682 11.672C32.7376 11.3947 33.1109 11.0107 33.3882 10.52C33.6656 10.0187 33.8042 9.44267 33.8042 8.792C33.8042 8.14133 33.6656 7.57067 33.3882 7.08C33.1109 6.58933 32.7376 6.20533 32.2682 5.928C31.7989 5.65067 31.2656 5.512 30.6682 5.512C30.0709 5.512 29.5322 5.65067 29.0522 5.928C28.5829 6.20533 28.2096 6.58933 27.9322 7.08C27.6656 7.57067 27.5322 8.14133 27.5322 8.792C27.5322 9.44267 27.6656 10.0187 27.9322 10.52C28.2096 11.0107 28.5829 11.3947 29.0522 11.672C29.5322 11.9387 30.0709 12.072 30.6682 12.072ZM42.8701 13V11.144L42.8221 10.84V7.736C42.8221 7.02133 42.6195 6.472 42.2141 6.088C41.8195 5.704 41.2275 5.512 40.4381 5.512C39.8941 5.512 39.3768 5.60267 38.8861 5.784C38.3955 5.96533 37.9795 6.20533 37.6381 6.504L37.1261 5.656C37.5528 5.29333 38.0648 5.016 38.6621 4.824C39.2595 4.62133 39.8888 4.52 40.5501 4.52C41.6381 4.52 42.4755 4.792 43.0621 5.336C43.6595 5.86933 43.9581 6.68533 43.9581 7.784V13H42.8701ZM39.9741 13.08C39.3448 13.08 38.7955 12.9787 38.3261 12.776C37.8675 12.5627 37.5155 12.2747 37.2701 11.912C37.0248 11.5387 36.9021 11.112 36.9021 10.632C36.9021 10.1947 37.0035 9.8 37.2061 9.448C37.4195 9.08533 37.7608 8.79733 38.2301 8.584C38.7101 8.36 39.3501 8.248 40.1501 8.248H43.0461V9.096H40.1821C39.3715 9.096 38.8061 9.24 38.4861 9.528C38.1768 9.816 38.0221 10.1733 38.0221 10.6C38.0221 11.08 38.2088 11.464 38.5821 11.752C38.9555 12.04 39.4781 12.184 40.1501 12.184C40.7901 12.184 41.3395 12.04 41.7981 11.752C42.2675 11.4533 42.6088 11.0267 42.8221 10.472L43.0781 11.256C42.8648 11.8107 42.4915 12.2533 41.9581 12.584C41.4355 12.9147 40.7741 13.08 39.9741 13.08ZM48.9022 13V5.288L49.1902 5.592H45.7182V4.6H53.2222V5.592H49.7502L50.0382 5.288V13H48.9022ZM55.1847 13V4.6H56.3207V8.312H61.6167V4.6H62.7527V13H61.6167V9.288H56.3207V13H55.1847ZM74.4936 13V4.6H75.6296V13H74.4936ZM69.8376 7.56C70.8936 7.57067 71.699 7.80533 72.2536 8.264C72.8083 8.72267 73.0856 9.384 73.0856 10.248C73.0856 11.144 72.787 11.832 72.1896 12.312C71.5923 12.792 70.739 13.0267 69.6296 13.016L66.3016 13V4.6H67.4376V7.528L69.8376 7.56ZM69.5496 12.152C70.339 12.1627 70.931 12.008 71.3256 11.688C71.731 11.3573 71.9336 10.8773 71.9336 10.248C71.9336 9.61867 71.7363 9.16 71.3416 8.872C70.947 8.57333 70.3496 8.41867 69.5496 8.408L67.4376 8.376V12.12L69.5496 12.152ZM79.1841 13V4.6H80.3201V11.272L85.9361 4.6H86.9441V13H85.8081V6.312L80.2081 13H79.1841ZM82.9921 3.384C82.2881 3.384 81.7175 3.208 81.2801 2.856C80.8535 2.49333 80.6295 1.976 80.6081 1.304H81.4241C81.4348 1.73067 81.5841 2.06667 81.8721 2.312C82.1601 2.55733 82.5335 2.68 82.9921 2.68C83.4508 2.68 83.8241 2.55733 84.1121 2.312C84.4108 2.06667 84.5655 1.73067 84.5761 1.304H85.3921C85.3815 1.976 85.1575 2.49333 84.7201 2.856C84.2828 3.208 83.7068 3.384 82.9921 3.384ZM97.2832 13.096C97.9766 13.096 98.6006 12.9893 99.1552 12.776C99.7206 12.5627 100.169 12.2693 100.499 11.896C100.83 11.512 100.995 11.0693 100.995 10.568C100.995 9.928 100.723 9.42133 100.179 9.048C99.6459 8.67467 98.8992 8.488 97.9392 8.488L97.8912 8.792C98.4352 8.792 98.9206 8.70667 99.3472 8.536C99.7739 8.36533 100.115 8.12533 100.371 7.816C100.627 7.50667 100.755 7.144 100.755 6.728C100.755 6.25867 100.595 5.85867 100.275 5.528C99.9552 5.18667 99.5232 4.92533 98.9792 4.744C98.4459 4.56267 97.8432 4.48267 97.1712 4.504C96.6806 4.504 96.1899 4.57333 95.6992 4.712C95.2192 4.84 94.7339 5.032 94.2432 5.288L94.5632 6.168C95.0006 5.944 95.4432 5.77867 95.8912 5.672C96.3392 5.55467 96.7712 5.49067 97.1872 5.48C97.6459 5.48 98.0566 5.53333 98.4192 5.64C98.7819 5.74667 99.0646 5.90667 99.2672 6.12C99.4806 6.33333 99.5872 6.58933 99.5872 6.888C99.5872 7.16533 99.4966 7.40533 99.3152 7.608C99.1446 7.81067 98.8992 7.96533 98.5792 8.072C98.2592 8.17867 97.8912 8.232 97.4752 8.232H96.1152V9.064H97.5552C98.2592 9.064 98.8139 9.192 99.2192 9.448C99.6246 9.69333 99.8272 10.04 99.8272 10.488C99.8272 10.7973 99.7206 11.0747 99.5072 11.32C99.2939 11.5653 98.9952 11.7573 98.6112 11.896C98.2272 12.0347 97.7739 12.1093 97.2512 12.12C96.7286 12.12 96.2006 12.0453 95.6672 11.896C95.1339 11.736 94.6646 11.5067 94.2592 11.208L93.8912 12.056C94.3499 12.408 94.8779 12.6693 95.4752 12.84C96.0726 13.0107 96.6752 13.096 97.2832 13.096ZM103.894 13V4.6H107.606C108.555 4.6 109.302 4.78133 109.846 5.144C110.401 5.50667 110.678 6.04 110.678 6.744C110.678 7.42667 110.417 7.95467 109.894 8.328C109.371 8.69067 108.683 8.872 107.83 8.872L108.054 8.536C109.057 8.536 109.793 8.72267 110.262 9.096C110.731 9.46933 110.966 10.008 110.966 10.712C110.966 11.4373 110.699 12.0027 110.166 12.408C109.643 12.8027 108.827 13 107.718 13H103.894ZM104.998 12.104H107.67C108.385 12.104 108.923 11.992 109.286 11.768C109.659 11.5333 109.846 11.16 109.846 10.648C109.846 10.136 109.681 9.76267 109.35 9.528C109.019 9.29333 108.497 9.176 107.782 9.176H104.998V12.104ZM104.998 8.328H107.526C108.177 8.328 108.673 8.20533 109.014 7.96C109.366 7.71467 109.542 7.35733 109.542 6.888C109.542 6.41867 109.366 6.06667 109.014 5.832C108.673 5.59733 108.177 5.48 107.526 5.48H104.998V8.328ZM117.404 13.08C116.594 13.08 115.863 12.8987 115.212 12.536C114.572 12.1627 114.066 11.656 113.692 11.016C113.319 10.3653 113.132 9.624 113.132 8.792C113.132 7.94933 113.319 7.208 113.692 6.568C114.066 5.928 114.572 5.42667 115.212 5.064C115.852 4.70133 116.583 4.52 117.404 4.52C118.236 4.52 118.972 4.70133 119.612 5.064C120.263 5.42667 120.77 5.928 121.132 6.568C121.506 7.208 121.692 7.94933 121.692 8.792C121.692 9.624 121.506 10.3653 121.132 11.016C120.77 11.656 120.263 12.1627 119.612 12.536C118.962 12.8987 118.226 13.08 117.404 13.08ZM117.404 12.072C118.012 12.072 118.551 11.9387 119.02 11.672C119.49 11.3947 119.858 11.0107 120.124 10.52C120.402 10.0187 120.54 9.44267 120.54 8.792C120.54 8.13067 120.402 7.55467 120.124 7.064C119.858 6.57333 119.49 6.19467 119.02 5.928C118.551 5.65067 118.018 5.512 117.42 5.512C116.823 5.512 116.29 5.65067 115.82 5.928C115.351 6.19467 114.978 6.57333 114.7 7.064C114.423 7.55467 114.284 8.13067 114.284 8.792C114.284 9.44267 114.423 10.0187 114.7 10.52C114.978 11.0107 115.351 11.3947 115.82 11.672C116.29 11.9387 116.818 12.072 117.404 12.072ZM124.44 13V4.6H125.576V8.312H130.872V4.6H132.008V13H130.872V9.288H125.576V13H124.44ZM139.013 13.08C138.203 13.08 137.472 12.8987 136.821 12.536C136.181 12.1627 135.675 11.656 135.301 11.016C134.928 10.3653 134.741 9.624 134.741 8.792C134.741 7.94933 134.928 7.208 135.301 6.568C135.675 5.928 136.181 5.42667 136.821 5.064C137.461 4.70133 138.192 4.52 139.013 4.52C139.845 4.52 140.581 4.70133 141.221 5.064C141.872 5.42667 142.379 5.928 142.741 6.568C143.115 7.208 143.301 7.94933 143.301 8.792C143.301 9.624 143.115 10.3653 142.741 11.016C142.379 11.656 141.872 12.1627 141.221 12.536C140.571 12.8987 139.835 13.08 139.013 13.08ZM139.013 12.072C139.621 12.072 140.16 11.9387 140.629 11.672C141.099 11.3947 141.467 11.0107 141.733 10.52C142.011 10.0187 142.149 9.44267 142.149 8.792C142.149 8.13067 142.011 7.55467 141.733 7.064C141.467 6.57333 141.099 6.19467 140.629 5.928C140.16 5.65067 139.627 5.512 139.029 5.512C138.432 5.512 137.899 5.65067 137.429 5.928C136.96 6.19467 136.587 6.57333 136.309 7.064C136.032 7.55467 135.893 8.13067 135.893 8.792C135.893 9.44267 136.032 10.0187 136.309 10.52C136.587 11.0107 136.96 11.3947 137.429 11.672C137.899 11.9387 138.427 12.072 139.013 12.072ZM152.209 13L148.753 8.84L149.697 8.28L153.553 13H152.209ZM146.049 13V4.6H147.185V13H146.049ZM146.833 9.256V8.28H149.537V9.256H146.833ZM149.793 8.92L148.737 8.76L152.081 4.6H153.313L149.793 8.92Z" fill="url(#paint0_linear_9_3800)"/>
<path d="M0 15H153.729V15.8H0V15Z" fill="url(#paint1_linear_9_3800)"/>
<defs>
<linearGradient id="paint0_linear_9_3800" x1="-50" y1="-27.5" x2="154" y2="17" gradientUnits="userSpaceOnUse">
<stop stop-color="#FBC100"/>
<stop offset="1" stop-color="#CC03D8"/>
</linearGradient>
<linearGradient id="paint1_linear_9_3800" x1="-50" y1="-27.5" x2="154" y2="17" gradientUnits="userSpaceOnUse">
<stop stop-color="#FBC100"/>
<stop offset="1" stop-color="#CC03D8"/>
</linearGradient>
</defs>
</svg>
